<?xml version="1.0" standalone="no"?>
<!DOCTYPE svg PUBLIC "-//W3C//DTD SVG 20010904//EN"
 "http://www.w3.org/TR/2001/REC-SVG-20010904/DTD/svg10.dtd">
<svg version="1.0" xmlns="http://www.w3.org/2000/svg"
 width="142.000000pt" height="50.000000pt" viewBox="0 0 142.000000 50.000000"
 preserveAspectRatio="xMidYMid meet">

<g transform="translate(0.000000,50.000000) scale(0.100000,-0.100000)"
fill="#000000" stroke="none">
<path d="M700 260 l0 -170 35 0 35 0 0 170 0 170 -35 0 -35 0 0 -170z"/>
<path d="M60 255 l0 -165 96 0 95 0 -3 32 c-3 33 -4 33 -60 36 -57 3 -58 4
-58 32 0 30 1 30 55 30 46 0 55 3 55 18 0 9 20 -19 44 -63 35 -65 48 -81 69
-83 23 -3 30 5 62 67 19 39 37 71 38 71 2 0 1 -15 0 -32 -8 -74 73 -136 137
-105 16 9 30 11 30 6 0 -5 16 -9 35 -9 l35 0 0 105 0 105 -29 0 c-17 0 -33 -5
-36 -10 -4 -7 -12 -7 -25 0 -30 16 -75 12 -103 -10 l-25 -20 5 21 c5 18 2 20
-33 17 -36 -3 -40 -7 -65 -58 l-26 -54 -26 58 -26 57 -86 -7 -85 -7 0 31 c0
31 1 31 58 34 56 3 57 3 60 36 l3 32 -95 0 -96 0 0 -165z m553 -36 c14 -22 1
-66 -21 -71 -34 -9 -62 9 -62 40 0 15 6 34 12 40 17 17 58 11 71 -9z"/>
<path d="M780 222 c0 -92 13 -117 69 -132 48 -13 99 -4 129 23 19 18 22 30 22
104 l0 84 -32 -3 -33 -3 -3 -65 c-3 -69 -13 -90 -43 -90 -27 0 -39 31 -39 99
l0 61 -35 0 -35 0 0 -78z"/>
<path d="M1010 195 l0 -105 35 0 35 0 0 64 c0 70 12 90 52 84 19 -2 23 -9 24
-40 1 -20 9 -49 18 -63 37 -56 128 -67 176 -22 22 19 22 21 4 34 -21 16 -40
17 -49 3 -14 -22 -75 -4 -75 22 0 4 34 8 76 8 l77 0 -7 33 c-14 72 -97 108
-167 72 -22 -12 -29 -12 -27 -3 4 20 -50 22 -78 3 -21 -14 -24 -14 -24 0 0 11
-10 15 -35 15 l-35 0 0 -105z m290 40 c0 -10 -11 -15 -35 -15 -33 0 -43 8 -28
23 13 14 63 7 63 -8z"/>
</g>
</svg>
